<svg xmlns="http://www.w3.org/2000/svg" xmlns:xlink="http://www.w3.org/1999/xlink" width="111.563" height="45.001" viewBox="0 0 111.563 45.001">
  <defs>
    <linearGradient id="linear-gradient" y1="0.5" x2="1" y2="0.5" gradientUnits="objectBoundingBox">
      <stop offset="0" stop-color="#0093de"/>
      <stop offset="0.312" stop-color="#f7c200"/>
      <stop offset="0.675" stop-color="#14a65c"/>
      <stop offset="1" stop-color="#da214d"/>
    </linearGradient>
  </defs>
  <g id="Group_853" data-name="Group 853" transform="translate(-1.752 2.493)">
    <rect id="Rectangle_3" data-name="Rectangle 3" width="3.745" height="7.647" rx="1.872" transform="translate(1.809 16.267)" fill="#00a4ff"/>
    <rect id="Rectangle_4" data-name="Rectangle 4" width="3.745" height="11.47" rx="1.872" transform="translate(9.456 12.434)" fill="#ffb500"/>
    <rect id="Rectangle_5" data-name="Rectangle 5" width="3.745" height="17.842" rx="1.872" transform="translate(18.377 6.01)" fill="#3fcb57"/>
    <rect id="Rectangle_6" data-name="Rectangle 6" width="3.745" height="26.345" rx="1.872" transform="translate(27.298 -2.493)" fill="#f32561"/>
    <path id="Path_480" data-name="Path 480" d="M2.068-30.509H6.035a4.273,4.273,0,0,1,1.528.257,3.241,3.241,0,0,1,1.139.713,3.038,3.038,0,0,1,.705,1.08A3.723,3.723,0,0,1,9.649-27.1a2.646,2.646,0,0,1-.169.955,3.251,3.251,0,0,1-.455.815,3.421,3.421,0,0,1-.668.661,4.05,4.05,0,0,1-.823.477v.132l2.747,3.923v.147H7.666L5.007-23.78H4.36v3.791H2.068ZM6.035-25.9a1.3,1.3,0,0,0,.97-.36,1.221,1.221,0,0,0,.353-.889,1.265,1.265,0,0,0-.331-.889,1.281,1.281,0,0,0-.992-.36H4.36v2.5Zm7.743-2.439v2H17.95v2.174H13.778v2H18.42v2.174H11.486V-30.509H18.42v2.174Zm9.8,8.58a4.15,4.15,0,0,1-2.534-.786A4.2,4.2,0,0,1,19.537-22.8l2.16-.852a2.841,2.841,0,0,0,.632,1.234,1.6,1.6,0,0,0,1.249.485,2.144,2.144,0,0,0,.507-.059,1.291,1.291,0,0,0,.426-.184,1.031,1.031,0,0,0,.3-.316.824.824,0,0,0,.118-.441,1.118,1.118,0,0,0-.1-.463,1.12,1.12,0,0,0-.316-.4,3.069,3.069,0,0,0-.588-.367A9.31,9.31,0,0,0,23-24.544l-.646-.235a4.882,4.882,0,0,1-.845-.4,3.707,3.707,0,0,1-.786-.624,3.063,3.063,0,0,1-.573-.845,2.512,2.512,0,0,1-.22-1.065,2.881,2.881,0,0,1,.25-1.19,2.8,2.8,0,0,1,.705-.962,3.38,3.38,0,0,1,1.1-.639,4.143,4.143,0,0,1,1.425-.235,4.15,4.15,0,0,1,1.41.213,3.467,3.467,0,0,1,1,.544,2.734,2.734,0,0,1,.654.742,4.423,4.423,0,0,1,.375.793l-1.983.837a1.634,1.634,0,0,0-.514-.757,1.4,1.4,0,0,0-.911-.286,1.6,1.6,0,0,0-.933.242.734.734,0,0,0-.345.624.918.918,0,0,0,.353.705,3.937,3.937,0,0,0,1.249.617l.646.22a5.1,5.1,0,0,1,2.072,1.219,2.843,2.843,0,0,1,.735,2.057,2.918,2.918,0,0,1-.331,1.425,3.127,3.127,0,0,1-.852,1,3.7,3.7,0,0,1-1.175.6A4.413,4.413,0,0,1,23.577-19.754Zm7.566-8.58v2h4.173v2.174H31.144v2h4.643v2.174H28.852V-30.509h6.935v2.174Zm9.52-2.174h2.645L47.246-19.99H44.719l-.808-2.351H40.062l-.808,2.351H36.726Zm2.512,6.082-.764-2.2-.353-1.293h-.147L41.56-26.63l-.764,2.2Zm5.3-6.082h3.967a4.273,4.273,0,0,1,1.528.257,3.241,3.241,0,0,1,1.139.713,3.038,3.038,0,0,1,.705,1.08,3.723,3.723,0,0,1,.242,1.359,2.646,2.646,0,0,1-.169.955,3.251,3.251,0,0,1-.455.815,3.421,3.421,0,0,1-.668.661,4.05,4.05,0,0,1-.823.477v.132l2.747,3.923v.147H54.078L51.418-23.78h-.646v3.791H48.48ZM52.447-25.9a1.3,1.3,0,0,0,.97-.36,1.221,1.221,0,0,0,.353-.889,1.265,1.265,0,0,0-.331-.889,1.281,1.281,0,0,0-.992-.36H50.772v2.5Zm14.692,4.2a5.227,5.227,0,0,1-4.217,1.939,5.592,5.592,0,0,1-2.189-.426,5.427,5.427,0,0,1-1.756-1.168,5.469,5.469,0,0,1-1.168-1.741,5.447,5.447,0,0,1-.426-2.16,5.447,5.447,0,0,1,.426-2.16,5.469,5.469,0,0,1,1.168-1.741,5.427,5.427,0,0,1,1.756-1.168,5.592,5.592,0,0,1,2.189-.426,5.27,5.27,0,0,1,2.241.441,5.551,5.551,0,0,1,1.726,1.278l-1.6,1.557a3.611,3.611,0,0,0-.984-.786,2.789,2.789,0,0,0-1.366-.316,3.467,3.467,0,0,0-1.286.235,3.013,3.013,0,0,0-1.036.676,3.161,3.161,0,0,0-.691,1.05,3.554,3.554,0,0,0-.25,1.359,3.554,3.554,0,0,0,.25,1.359,3.161,3.161,0,0,0,.691,1.05,3.013,3.013,0,0,0,1.036.676,3.467,3.467,0,0,0,1.286.235,2.983,2.983,0,0,0,1.454-.338,3.691,3.691,0,0,0,1.117-.97Zm1.587-8.815h2.292v4.055h4.026v-4.055h2.292V-19.99H75.043v-4.29H71.017v4.29H68.725ZM7.093-9.046h5.186a4.2,4.2,0,0,1,.081.455,4.062,4.062,0,0,1,.037.529,5.654,5.654,0,0,1-.323,1.983,4.54,4.54,0,0,1-.94,1.528,4.918,4.918,0,0,1-1.7,1.168,5.846,5.846,0,0,1-2.277.419,5.744,5.744,0,0,1-2.167-.411A5.59,5.59,0,0,1,3.2-4.514a5.3,5.3,0,0,1-1.2-1.734,5.452,5.452,0,0,1-.441-2.211,5.452,5.452,0,0,1,.441-2.211A5.3,5.3,0,0,1,3.2-12.4a5.59,5.59,0,0,1,1.785-1.139,5.744,5.744,0,0,1,2.167-.411A5.534,5.534,0,0,1,9.48-13.5a5.571,5.571,0,0,1,1.741,1.249L9.664-10.721a3.881,3.881,0,0,0-1.095-.786,3.407,3.407,0,0,0-1.447-.272,3.336,3.336,0,0,0-1.271.242,3.246,3.246,0,0,0-1.043.676A3.116,3.116,0,0,0,4.1-9.817a3.465,3.465,0,0,0-.257,1.359A3.465,3.465,0,0,0,4.1-7.1a3.064,3.064,0,0,0,.713,1.043,3.312,3.312,0,0,0,1.058.676,3.43,3.43,0,0,0,1.293.242,3.127,3.127,0,0,0,2.16-.72,2.623,2.623,0,0,0,.463-.551,3.209,3.209,0,0,0,.345-.727H7.093Zm9.858-4.672H19.6L23.533-3.2H21.006L20.2-5.549H16.349L15.541-3.2H13.014Zm2.512,6.082-.764-2.2-.353-1.293H18.2l-.353,1.293-.764,2.2ZM26.045-3.2v-8.345H23.107v-2.174h8.169v2.174H28.337V-3.2Zm8.933-8.345v2h4.173v2.174H34.978v2h4.643V-3.2H32.686V-13.718h6.935v2.174Zm5.642-2.174h2.439l1.455,5.509.25,1.264h.147l.309-1.264,1.278-4.1h2.145l1.293,4.1.294,1.234h.147l.22-1.234,1.366-5.509H54.4L51.624-3.2H49.45l-1.5-4.613-.309-1.264H47.5l-.309,1.264L45.689-3.2H43.514Zm17.469,0h2.645L64.671-3.2H62.144l-.808-2.351H57.486L56.678-3.2H54.151ZM60.6-7.636l-.764-2.2-.353-1.293h-.147l-.353,1.293-.764,2.2Zm6.861-.455-3.541-5.627h2.762l1.851,3.085h.147l1.763-3.085h2.791L69.754-8.091V-3.2H67.462Z" transform="translate(35.98 36.907)" fill="#fff"/>
    <g id="Group_92" data-name="Group 92" transform="translate(1.752 27.591)">
      <g id="Group_68" data-name="Group 68">
        <path id="Path_121" data-name="Path 121" d="M-1902.834,1442.063h-2.062a.273.273,0,0,1-.27-.233l-.568-3.775a11.079,11.079,0,0,1-1.832-.488l-2.379,2.986a.275.275,0,0,1-.351.066l-1.786-1.034a.273.273,0,0,1-.118-.336l1.4-3.553a11.067,11.067,0,0,1-1.34-1.342l-3.555,1.4a.274.274,0,0,1-.336-.118l-1.032-1.784a.273.273,0,0,1,.066-.351l2.988-2.376a10.848,10.848,0,0,1-.49-1.834l-3.776-.564a.274.274,0,0,1-.233-.271v-1.034a.274.274,0,0,1,.273-.273.274.274,0,0,1,.273.273v.8l3.74.559a.274.274,0,0,1,.23.228,10.3,10.3,0,0,0,.564,2.109.274.274,0,0,1-.085.312l-2.958,2.353.8,1.377,3.521-1.384a.275.275,0,0,1,.312.082,10.532,10.532,0,0,0,1.543,1.544.274.274,0,0,1,.082.312l-1.384,3.519,1.379.8,2.356-2.956a.274.274,0,0,1,.311-.085,10.538,10.538,0,0,0,2.109.562.273.273,0,0,1,.227.229l.563,3.738h1.591l.561-3.738a.273.273,0,0,1,.228-.229,10.5,10.5,0,0,0,2.108-.562.274.274,0,0,1,.311.085l2.356,2.956,1.379-.8-1.384-3.519a.273.273,0,0,1,.083-.313,10.293,10.293,0,0,0,1.542-1.544.274.274,0,0,1,.313-.083l3.521,1.384.8-1.377-2.959-2.357a.273.273,0,0,1-.084-.313,9.939,9.939,0,0,0,.563-2.1.273.273,0,0,1,.23-.229l3.74-.563v-.795a.274.274,0,0,1,.273-.273.274.274,0,0,1,.273.273v1.03a.273.273,0,0,1-.233.27l-3.776.568a10.517,10.517,0,0,1-.49,1.83l2.987,2.38a.273.273,0,0,1,.066.35l-1.032,1.784a.273.273,0,0,1-.337.118l-3.554-1.4a10.855,10.855,0,0,1-1.341,1.342l1.4,3.553a.273.273,0,0,1-.117.336l-1.786,1.034a.273.273,0,0,1-.351-.066l-2.379-2.986a11.045,11.045,0,0,1-1.832.488l-.566,3.775A.273.273,0,0,1-1902.834,1442.063Zm-1.032-9.094a5.556,5.556,0,0,1-5.549-5.55.273.273,0,0,1,.273-.273.274.274,0,0,1,.273.273,5.009,5.009,0,0,0,5,5,5.009,5.009,0,0,0,5-5,.274.274,0,0,1,.273-.273.273.273,0,0,1,.273.273A5.556,5.556,0,0,1-1903.866,1432.969Z" transform="translate(1918.512 -1427.146)" fill="url(#linear-gradient)"/>
      </g>
    </g>
  </g>
</svg>
