<svg width="100" height="100" viewBox="0 0 100 100" fill="none" xmlns="http://www.w3.org/2000/svg">
<g clip-path="url(#clip0_3_17)">
<path d="M90 0H10C4.47715 0 0 4.47715 0 10V90C0 95.5229 4.47715 100 10 100H90C95.5229 100 100 95.5229 100 90V10C100 4.47715 95.5229 0 90 0Z" fill="#F8F8F8"/>
<g clip-path="url(#clip1_3_17)">
<path d="M30.233 37.248C30.588 36.8933 31.0692 36.6941 31.571 36.6941C32.0728 36.6941 32.554 36.8933 32.909 37.248L35.426 39.765L38.886 36.993L35.463 30.393C34.3103 31.1621 32.9557 31.5726 31.57 31.5726C30.1843 31.5726 28.8297 31.1621 27.677 30.393L24.254 36.993L27.716 39.765L30.233 37.248Z" fill="#7451C6"/>
<path d="M34.576 28.678L32.405 24.493C32.3225 24.3426 32.201 24.2173 32.0532 24.1302C31.9055 24.0431 31.7369 23.9975 31.5654 23.9982C31.3939 23.999 31.2258 24.046 31.0787 24.1343C30.9317 24.2226 30.8112 24.3489 30.73 24.5L28.565 28.678C29.4324 29.3274 30.4869 29.6784 31.5705 29.6784C32.6541 29.6784 33.7086 29.3274 34.576 28.678V28.678Z" fill="#7451C6"/>
<path d="M36.302 41.436V52.687L39.141 49.848V39.214L36.609 41.242C36.5136 41.3187 36.4107 41.3857 36.302 41.442V41.436Z" fill="#7451C6"/>
<path d="M41.872 56.487C41.7842 56.5749 41.6799 56.6446 41.5651 56.6921C41.4503 56.7397 41.3273 56.7642 41.203 56.7642C41.0788 56.7642 40.9557 56.7397 40.8409 56.6921C40.7261 56.6446 40.6218 56.5749 40.534 56.487L37.857 53.81L36.519 55.148L37.855 56.487C38.0326 56.6644 38.1324 56.9051 38.1325 57.1561C38.1326 57.4072 38.0329 57.6479 37.8555 57.8255C37.7676 57.9134 37.6633 57.9832 37.5485 58.0308C37.4337 58.0784 37.3106 58.1029 37.1864 58.103C36.9353 58.1031 36.6946 58.0034 36.517 57.826L35.177 56.486L33.841 57.827L34.366 58.351C34.4589 58.4377 34.5334 58.5422 34.5851 58.6582C34.6367 58.7743 34.6645 58.8996 34.6666 59.0267C34.6688 59.1537 34.6453 59.2799 34.5977 59.3977C34.55 59.5155 34.4791 59.6224 34.3892 59.7122C34.2993 59.802 34.1922 59.8727 34.0743 59.9202C33.9565 59.9677 33.8303 59.991 33.7032 59.9886C33.5762 59.9863 33.4509 59.9584 33.3349 59.9065C33.2189 59.8547 33.1145 59.78 33.028 59.687L32.503 59.163L29.772 61.895C30.0551 61.866 30.3394 61.8513 30.624 61.851H51.23L67.297 45.787C67.3849 45.6991 67.4546 45.5949 67.5021 45.4801C67.5497 45.3653 67.5742 45.2422 67.5742 45.118C67.5742 44.9937 67.5497 44.8707 67.5021 44.7559C67.4546 44.6411 67.3849 44.5368 67.297 44.449L57.929 35.077C57.8412 34.9891 57.7369 34.9194 57.6221 34.8719C57.5073 34.8243 57.3843 34.7998 57.26 34.7998C57.1358 34.7998 57.0127 34.8243 56.8979 34.8719C56.7831 34.9194 56.6788 34.9891 56.591 35.077L55.249 36.419L57.925 39.095C58.1024 39.2724 58.2021 39.5131 58.2021 39.764C58.2021 40.0149 58.1024 40.2556 57.925 40.433C57.7476 40.6104 57.5069 40.7101 57.256 40.7101C57.0051 40.7101 56.7644 40.6104 56.587 40.433L53.911 37.757L52.577 39.093L53.914 40.431C54.0052 40.518 54.078 40.6224 54.1283 40.738C54.1785 40.8536 54.2052 40.9781 54.2067 41.1041C54.2081 41.2301 54.1844 41.3552 54.1369 41.4719C54.0894 41.5887 54.019 41.6947 53.9299 41.7839C53.8408 41.873 53.7348 41.9435 53.6181 41.9911C53.5014 42.0387 53.3763 42.0625 53.2503 42.0611C53.1243 42.0598 52.9998 42.0332 52.8842 41.983C52.7685 41.9329 52.6641 41.8601 52.577 41.769L51.239 40.431L49.899 41.769L52.577 44.445C52.755 44.6224 52.8552 44.8633 52.8555 45.1146C52.8559 45.3659 52.7564 45.607 52.579 45.785C52.4016 45.963 52.1607 46.0631 51.9094 46.0635C51.6581 46.0639 51.417 45.9644 51.239 45.787L48.563 43.107L47.224 44.446L48.563 45.787C48.6509 45.8749 48.7205 45.9791 48.7681 46.0939C48.8156 46.2087 48.8401 46.3318 48.8401 46.456C48.8401 46.5802 48.8156 46.7033 48.7681 46.8181C48.7205 46.9328 48.6509 47.0371 48.563 47.125C48.4751 47.2129 48.3709 47.2825 48.2561 47.3301C48.1413 47.3776 48.0182 47.4021 47.894 47.4021C47.7698 47.4021 47.6467 47.3776 47.5319 47.3301C47.4172 47.2825 47.3129 47.2129 47.225 47.125L45.886 45.787L44.548 47.125L47.224 49.802C47.4014 49.9794 47.5011 50.2201 47.5011 50.471C47.5011 50.7219 47.4014 50.9626 47.224 51.14C47.0466 51.3174 46.8059 51.4171 46.555 51.4171C46.3041 51.4171 46.0634 51.3174 45.886 51.14L43.209 48.463L41.872 49.798L43.21 51.137C43.3874 51.3144 43.4871 51.5551 43.4871 51.806C43.4871 52.0569 43.3874 52.2976 43.21 52.475C43.0326 52.6524 42.7919 52.7521 42.541 52.7521C42.2901 52.7521 42.0494 52.6524 41.872 52.475L40.532 51.136L39.192 52.474L41.872 55.151C41.9599 55.2388 42.0296 55.3431 42.0771 55.4579C42.1247 55.5727 42.1492 55.6957 42.1492 55.82C42.1492 55.9442 42.1247 56.0673 42.0771 56.1821C42.0296 56.2969 41.9599 56.4012 41.872 56.489V56.487Z" fill="#7451C6"/>
<path d="M25.1 63.901C25.1034 63.8937 25.1074 63.8867 25.112 63.88L25.137 63.854L26.837 62.154V56.172C26.837 55.921 26.9367 55.6802 27.1142 55.5027C27.2917 55.3252 27.5325 55.2255 27.7835 55.2255C28.0345 55.2255 28.2753 55.3252 28.4528 55.5027C28.6303 55.6802 28.73 55.921 28.73 56.172V60.256L34.408 54.578V41.357C34.2916 41.2845 34.1836 41.1993 34.086 41.103L31.57 38.586L29.053 41.103C28.9552 41.1993 28.8472 41.2848 28.731 41.358V52.388C28.731 52.639 28.6313 52.8798 28.4538 53.0573C28.2763 53.2348 28.0355 53.3345 27.7845 53.3345C27.5335 53.3345 27.2927 53.2348 27.1152 53.0573C26.9377 52.8798 26.838 52.639 26.838 52.388V41.412C26.7305 41.3656 26.6277 41.309 26.531 41.243L24 39.214V65.027C24.3314 64.6187 24.6996 64.2418 25.1 63.901V63.901Z" fill="#7451C6"/>
<path d="M70.367 63.743H30.624C28.8672 63.743 27.1824 64.4409 25.9401 65.6831C24.6979 66.9254 24 68.6102 24 70.367C24 72.1238 24.6979 73.8086 25.9401 75.0509C27.1824 76.2931 28.8672 76.991 30.624 76.991H70.367C72.1238 76.991 73.8086 76.2931 75.0509 75.0509C76.2931 73.8086 76.991 72.1238 76.991 70.367C76.991 68.6102 76.2931 66.9254 75.0509 65.6831C73.8086 64.4409 72.1238 63.743 70.367 63.743V63.743ZM30.624 75.098C29.6883 75.098 28.7736 74.8205 27.9956 74.3007C27.2176 73.7808 26.6112 73.042 26.2531 72.1775C25.895 71.313 25.8014 70.3618 25.9839 69.444C26.1665 68.5263 26.617 67.6833 27.2787 67.0217C27.9403 66.36 28.7833 65.9095 29.701 65.7269C30.6188 65.5444 31.57 65.638 32.4345 65.9961C33.299 66.3542 34.0378 66.9606 34.5577 67.7386C35.0775 68.5166 35.355 69.4313 35.355 70.367C35.355 70.9883 35.2326 71.6035 34.9949 72.1775C34.7571 72.7515 34.4086 73.273 33.9693 73.7123C33.53 74.1516 33.0085 74.5001 32.4345 74.7379C31.8605 74.9756 31.2453 75.098 30.624 75.098ZM70.367 75.098C69.4314 75.0976 68.5169 74.8198 67.7391 74.2997C66.9614 73.7796 66.3553 73.0406 65.9976 72.1761C65.6398 71.3116 65.5464 70.3604 65.7291 69.4428C65.9119 68.5252 66.3627 67.6824 67.0244 67.021C67.6861 66.3595 68.5291 65.9091 69.4468 65.7268C70.3644 65.5444 71.3156 65.6382 72.1799 65.9963C73.0443 66.3545 73.7831 66.9608 74.3028 67.7388C74.8226 68.5168 75.1 69.4314 75.1 70.367C75.1 70.9885 74.9776 71.6038 74.7397 72.1779C74.5018 72.7521 74.1531 73.2737 73.7136 73.713C73.2741 74.1524 72.7523 74.5008 72.1781 74.7384C71.6039 74.9761 70.9885 75.0983 70.367 75.098V75.098Z" fill="#7451C6"/>
<path d="M70.5 72.991C71.8807 72.991 73 71.8717 73 70.491C73 69.1103 71.8807 67.991 70.5 67.991C69.1193 67.991 68 69.1103 68 70.491C68 71.8717 69.1193 72.991 70.5 72.991Z" fill="#7451C6"/>
<path d="M30.5 72.991C31.8807 72.991 33 71.8717 33 70.491C33 69.1103 31.8807 67.991 30.5 67.991C29.1193 67.991 28 69.1103 28 70.491C28 71.8717 29.1193 72.991 30.5 72.991Z" fill="#7451C6"/>
</g>
</g>
<defs>
<clipPath id="clip0_3_17">
<rect width="100" height="100" fill="white"/>
</clipPath>
<clipPath id="clip1_3_17">
<rect width="52.991" height="52.991" fill="white" transform="translate(24 24)"/>
</clipPath>
</defs>
</svg>
