<svg width="100" height="100" viewBox="0 0 100 100" fill="none" xmlns="http://www.w3.org/2000/svg">
<g clip-path="url(#clip0_3_54)">
<path d="M90 0H10C4.47715 0 0 4.47715 0 10V90C0 95.5229 4.47715 100 10 100H90C95.5229 100 100 95.5229 100 90V10C100 4.47715 95.5229 0 90 0Z" fill="#F8F8F8"/>
<g clip-path="url(#clip1_3_54)">
<path d="M71.548 23H27.855C26.5678 23.0013 25.3337 23.5133 24.4235 24.4235C23.5133 25.3337 23.0013 26.5678 23 27.855V35.137C23.0013 36.4242 23.5133 37.6583 24.4235 38.5685C25.3337 39.4787 26.5678 39.9907 27.855 39.992H71.548C72.8347 39.9899 74.068 39.4776 74.9776 38.5675C75.8872 37.6574 76.3987 36.4237 76.4 35.137V27.855C76.3987 26.5683 75.8872 25.3346 74.9776 24.4245C74.068 23.5144 72.8347 23.0021 71.548 23V23ZM32.709 33.923C32.7137 34.0853 32.6857 34.2469 32.6268 34.3982C32.5679 34.5495 32.4793 34.6874 32.3662 34.8039C32.253 34.9203 32.1177 35.0129 31.9681 35.0761C31.8186 35.1393 31.6579 35.1718 31.4955 35.1718C31.3331 35.1718 31.1724 35.1393 31.0229 35.0761C30.8733 35.0129 30.738 34.9203 30.6248 34.8039C30.5117 34.6874 30.4231 34.5495 30.3642 34.3982C30.3053 34.2469 30.2773 34.0853 30.282 33.923V29.068C30.2773 28.9057 30.3053 28.7441 30.3642 28.5928C30.4231 28.4415 30.5117 28.3036 30.6248 28.1871C30.738 28.0707 30.8733 27.9781 31.0229 27.9149C31.1724 27.8517 31.3331 27.8192 31.4955 27.8192C31.6579 27.8192 31.8186 27.8517 31.9681 27.9149C32.1177 27.9781 32.253 28.0707 32.3662 28.1871C32.4793 28.3036 32.5679 28.4415 32.6268 28.5928C32.6857 28.7441 32.7137 28.9057 32.709 29.068V33.923ZM37.564 33.923C37.5549 34.2388 37.4231 34.5386 37.1965 34.7588C36.9699 34.979 36.6664 35.1022 36.3505 35.1022C36.0346 35.1022 35.7311 34.979 35.5045 34.7588C35.2779 34.5386 35.1461 34.2388 35.137 33.923V29.068C35.1323 28.9057 35.1603 28.7441 35.2192 28.5928C35.2781 28.4415 35.3667 28.3036 35.4798 28.1871C35.593 28.0707 35.7283 27.9781 35.8779 27.9149C36.0274 27.8517 36.1881 27.8192 36.3505 27.8192C36.5129 27.8192 36.6736 27.8517 36.8231 27.9149C36.9727 27.9781 37.108 28.0707 37.2212 28.1871C37.3343 28.3036 37.4229 28.4415 37.4818 28.5928C37.5407 28.7441 37.5687 28.9057 37.564 29.068V33.923ZM42.419 33.923C42.4099 34.2388 42.2781 34.5386 42.0515 34.7588C41.8249 34.979 41.5214 35.1022 41.2055 35.1022C40.8896 35.1022 40.5861 34.979 40.3595 34.7588C40.1329 34.5386 40.0011 34.2388 39.992 33.923V29.068C39.9873 28.9057 40.0153 28.7441 40.0742 28.5928C40.1331 28.4415 40.2217 28.3036 40.3348 28.1871C40.448 28.0707 40.5833 27.9781 40.7329 27.9149C40.8824 27.8517 41.0431 27.8192 41.2055 27.8192C41.3679 27.8192 41.5286 27.8517 41.6781 27.9149C41.8277 27.9781 41.963 28.0707 42.0762 28.1871C42.1893 28.3036 42.2779 28.4415 42.3368 28.5928C42.3957 28.7441 42.4237 28.9057 42.419 29.068V33.923ZM59.411 33.923C58.9308 33.923 58.4614 33.7806 58.0622 33.5137C57.663 33.2468 57.3519 32.8676 57.1684 32.4238C56.9848 31.9801 56.937 31.4919 57.0309 31.021C57.1249 30.5501 57.3564 30.1177 57.6963 29.7784C58.0361 29.4392 58.4689 29.2083 58.94 29.1151C59.411 29.022 59.8991 29.0706 60.3425 29.2549C60.786 29.4392 61.1647 29.7509 61.4309 30.1505C61.6971 30.5502 61.8388 31.0198 61.838 31.5C61.8359 32.1427 61.5794 32.7583 61.1246 33.2124C60.6698 33.6665 60.0537 33.9219 59.411 33.923ZM66.693 33.923C66.2128 33.923 65.7434 33.7806 65.3442 33.5137C64.945 33.2468 64.6339 32.8676 64.4504 32.4238C64.2668 31.9801 64.219 31.4919 64.3129 31.021C64.4069 30.5501 64.6384 30.1177 64.9783 29.7784C65.3181 29.4392 65.7509 29.2083 66.222 29.1151C66.693 29.022 67.1811 29.0706 67.6245 29.2549C68.068 29.4392 68.4467 29.7509 68.7129 30.1505C68.9791 30.5502 69.1208 31.0198 69.12 31.5C69.1179 32.1427 68.8614 32.7583 68.4066 33.2124C67.9518 33.6665 67.3357 33.9219 66.693 33.923Z" fill="#00A4FF"/>
<path d="M71.548 41.205H27.855C26.5678 41.2063 25.3337 41.7182 24.4235 42.6284C23.5133 43.5387 23.0013 44.7728 23 46.06V53.342C23.0013 54.6292 23.5133 55.8633 24.4235 56.7735C25.3337 57.6837 26.5678 58.1957 27.855 58.197H71.548C72.8352 58.1957 74.0693 57.6837 74.9795 56.7735C75.8897 55.8633 76.4017 54.6292 76.403 53.342V46.06C76.4017 44.7728 75.8897 43.5387 74.9795 42.6284C74.0693 41.7182 72.8352 41.2063 71.548 41.205V41.205ZM32.709 52.128C32.7137 52.2903 32.6857 52.4518 32.6268 52.6031C32.5679 52.7545 32.4793 52.8924 32.3662 53.0089C32.253 53.1253 32.1177 53.2178 31.9681 53.2811C31.8186 53.3443 31.6579 53.3768 31.4955 53.3768C31.3331 53.3768 31.1724 53.3443 31.0229 53.2811C30.8733 53.2178 30.738 53.1253 30.6248 53.0089C30.5117 52.8924 30.4231 52.7545 30.3642 52.6031C30.3053 52.4518 30.2773 52.2903 30.282 52.128V47.273C30.2773 47.1107 30.3053 46.9491 30.3642 46.7978C30.4231 46.6465 30.5117 46.5086 30.6248 46.3921C30.738 46.2757 30.8733 46.1831 31.0229 46.1199C31.1724 46.0567 31.3331 46.0242 31.4955 46.0242C31.6579 46.0242 31.8186 46.0567 31.9681 46.1199C32.1177 46.1831 32.253 46.2757 32.3662 46.3921C32.4793 46.5086 32.5679 46.6465 32.6268 46.7978C32.6857 46.9491 32.7137 47.1107 32.709 47.273V52.128ZM37.564 52.128C37.5687 52.2903 37.5407 52.4518 37.4818 52.6031C37.4229 52.7545 37.3343 52.8924 37.2212 53.0089C37.108 53.1253 36.9727 53.2178 36.8231 53.2811C36.6736 53.3443 36.5129 53.3768 36.3505 53.3768C36.1881 53.3768 36.0274 53.3443 35.8779 53.2811C35.7283 53.2178 35.593 53.1253 35.4798 53.0089C35.3667 52.8924 35.2781 52.7545 35.2192 52.6031C35.1603 52.4518 35.1323 52.2903 35.137 52.128V47.273C35.1323 47.1107 35.1603 46.9491 35.2192 46.7978C35.2781 46.6465 35.3667 46.5086 35.4798 46.3921C35.593 46.2757 35.7283 46.1831 35.8779 46.1199C36.0274 46.0567 36.1881 46.0242 36.3505 46.0242C36.5129 46.0242 36.6736 46.0567 36.8231 46.1199C36.9727 46.1831 37.108 46.2757 37.2212 46.3921C37.3343 46.5086 37.4229 46.6465 37.4818 46.7978C37.5407 46.9491 37.5687 47.1107 37.564 47.273V52.128ZM42.419 52.128C42.4237 52.2903 42.3957 52.4518 42.3368 52.6031C42.2779 52.7545 42.1893 52.8924 42.0762 53.0089C41.963 53.1253 41.8277 53.2178 41.6781 53.2811C41.5286 53.3443 41.3679 53.3768 41.2055 53.3768C41.0431 53.3768 40.8824 53.3443 40.7329 53.2811C40.5833 53.2178 40.448 53.1253 40.3348 53.0089C40.2217 52.8924 40.1331 52.7545 40.0742 52.6031C40.0153 52.4518 39.9873 52.2903 39.992 52.128V47.273C39.9873 47.1107 40.0153 46.9491 40.0742 46.7978C40.1331 46.6465 40.2217 46.5086 40.3348 46.3921C40.448 46.2757 40.5833 46.1831 40.7329 46.1199C40.8824 46.0567 41.0431 46.0242 41.2055 46.0242C41.3679 46.0242 41.5286 46.0567 41.6781 46.1199C41.8277 46.1831 41.963 46.2757 42.0762 46.3921C42.1893 46.5086 42.2779 46.6465 42.3368 46.7978C42.3957 46.9491 42.4237 47.1107 42.419 47.273V52.128ZM59.411 52.128C58.931 52.128 58.4617 51.9856 58.0626 51.719C57.6635 51.4523 57.3524 51.0732 57.1687 50.6298C56.985 50.1863 56.937 49.6983 57.0306 49.2275C57.1243 48.7567 57.3554 48.3243 57.6949 47.9848C58.0343 47.6454 58.4667 47.4143 58.9375 47.3206C59.4083 47.227 59.8963 47.275 60.3398 47.4587C60.7832 47.6424 61.1623 47.9535 61.429 48.3526C61.6957 48.7517 61.838 49.221 61.838 49.701C61.8369 50.3443 61.5809 50.961 61.126 51.416C60.6711 51.8709 60.0544 52.1269 59.411 52.128V52.128ZM66.693 52.128C66.2128 52.128 65.7434 51.9855 65.3442 51.7187C64.945 51.4518 64.6339 51.0725 64.4504 50.6288C64.2668 50.1851 64.219 49.6969 64.3129 49.226C64.4069 48.7551 64.6384 48.3227 64.9783 47.9834C65.3181 47.6442 65.7509 47.4133 66.222 47.3201C66.693 47.2269 67.1811 47.2756 67.6245 47.4599C68.068 47.6442 68.4467 47.9559 68.7129 48.3555C68.9791 48.7552 69.1208 49.2248 69.12 49.705C69.1179 50.3476 68.8614 50.9633 68.4066 51.4174C67.9518 51.8714 67.3357 52.1269 66.693 52.128V52.128Z" fill="#00A4FF"/>
<path d="M71.548 59.411H27.855C26.5678 59.4123 25.3337 59.9243 24.4235 60.8345C23.5133 61.7447 23.0013 62.9788 23 64.266V71.548C23.0013 72.8352 23.5133 74.0694 24.4235 74.9796C25.3337 75.8898 26.5678 76.4017 27.855 76.403H71.548C72.8352 76.4017 74.0693 75.8898 74.9795 74.9796C75.8897 74.0694 76.4017 72.8352 76.403 71.548V64.266C76.4017 62.9788 75.8897 61.7447 74.9795 60.8345C74.0693 59.9243 72.8352 59.4123 71.548 59.411V59.411ZM32.709 70.334C32.7137 70.4963 32.6857 70.6579 32.6268 70.8092C32.5679 70.9605 32.4793 71.0984 32.3662 71.2149C32.253 71.3313 32.1177 71.4239 31.9681 71.4871C31.8186 71.5503 31.6579 71.5829 31.4955 71.5829C31.3331 71.5829 31.1724 71.5503 31.0229 71.4871C30.8733 71.4239 30.738 71.3313 30.6248 71.2149C30.5117 71.0984 30.4231 70.9605 30.3642 70.8092C30.3053 70.6579 30.2773 70.4963 30.282 70.334V65.479C30.2773 65.3167 30.3053 65.1551 30.3642 65.0038C30.4231 64.8525 30.5117 64.7146 30.6248 64.5981C30.738 64.4817 30.8733 64.3892 31.0229 64.326C31.1724 64.2628 31.3331 64.2302 31.4955 64.2302C31.6579 64.2302 31.8186 64.2628 31.9681 64.326C32.1177 64.3892 32.253 64.4817 32.3662 64.5981C32.4793 64.7146 32.5679 64.8525 32.6268 65.0038C32.6857 65.1551 32.7137 65.3167 32.709 65.479V70.334ZM37.564 70.334C37.5687 70.4963 37.5407 70.6579 37.4818 70.8092C37.4229 70.9605 37.3343 71.0984 37.2212 71.2149C37.108 71.3313 36.9727 71.4239 36.8231 71.4871C36.6736 71.5503 36.5129 71.5829 36.3505 71.5829C36.1881 71.5829 36.0274 71.5503 35.8779 71.4871C35.7283 71.4239 35.593 71.3313 35.4798 71.2149C35.3667 71.0984 35.2781 70.9605 35.2192 70.8092C35.1603 70.6579 35.1323 70.4963 35.137 70.334V65.479C35.1323 65.3167 35.1603 65.1551 35.2192 65.0038C35.2781 64.8525 35.3667 64.7146 35.4798 64.5981C35.593 64.4817 35.7283 64.3892 35.8779 64.326C36.0274 64.2628 36.1881 64.2302 36.3505 64.2302C36.5129 64.2302 36.6736 64.2628 36.8231 64.326C36.9727 64.3892 37.108 64.4817 37.2212 64.5981C37.3343 64.7146 37.4229 64.8525 37.4818 65.0038C37.5407 65.1551 37.5687 65.3167 37.564 65.479V70.334ZM42.419 70.334C42.4237 70.4963 42.3957 70.6579 42.3368 70.8092C42.2779 70.9605 42.1893 71.0984 42.0762 71.2149C41.963 71.3313 41.8277 71.4239 41.6781 71.4871C41.5286 71.5503 41.3679 71.5829 41.2055 71.5829C41.0431 71.5829 40.8824 71.5503 40.7329 71.4871C40.5833 71.4239 40.448 71.3313 40.3348 71.2149C40.2217 71.0984 40.1331 70.9605 40.0742 70.8092C40.0153 70.6579 39.9873 70.4963 39.992 70.334V65.479C39.9873 65.3167 40.0153 65.1551 40.0742 65.0038C40.1331 64.8525 40.2217 64.7146 40.3348 64.5981C40.448 64.4817 40.5833 64.3892 40.7329 64.326C40.8824 64.2628 41.0431 64.2302 41.2055 64.2302C41.3679 64.2302 41.5286 64.2628 41.6781 64.326C41.8277 64.3892 41.963 64.4817 42.0762 64.5981C42.1893 64.7146 42.2779 64.8525 42.3368 65.0038C42.3957 65.1551 42.4237 65.3167 42.419 65.479V70.334ZM59.411 70.334C58.931 70.334 58.4617 70.1917 58.0626 69.925C57.6635 69.6583 57.3524 69.2793 57.1687 68.8358C56.985 68.3923 56.937 67.9043 57.0306 67.4335C57.1243 66.9627 57.3554 66.5303 57.6949 66.1909C58.0343 65.8514 58.4667 65.6203 58.9375 65.5266C59.4083 65.433 59.8963 65.4811 60.3398 65.6648C60.7832 65.8485 61.1623 66.1595 61.429 66.5587C61.6957 66.9578 61.838 67.427 61.838 67.907C61.8369 68.5504 61.5809 69.1671 61.126 69.622C60.6711 70.0769 60.0544 70.333 59.411 70.334V70.334ZM66.693 70.334C66.2128 70.334 65.7434 70.1916 65.3442 69.9247C64.945 69.6579 64.6339 69.2786 64.4504 68.8349C64.2668 68.3912 64.219 67.903 64.3129 67.4321C64.4069 66.9612 64.6384 66.5287 64.9783 66.1895C65.3181 65.8502 65.7509 65.6193 66.222 65.5262C66.693 65.433 67.1811 65.4816 67.6245 65.6659C68.068 65.8502 68.4467 66.1619 68.7129 66.5616C68.9791 66.9612 69.1208 67.4308 69.12 67.911C69.1179 68.5537 68.8614 69.1694 68.4066 69.6234C67.9518 70.0775 67.3357 70.333 66.693 70.334V70.334Z" fill="#00A4FF"/>
</g>
</g>
<defs>
<clipPath id="clip0_3_54">
<rect width="100" height="100" fill="white"/>
</clipPath>
<clipPath id="clip1_3_54">
<rect width="53.402" height="53.402" fill="white" transform="translate(23 23)"/>
</clipPath>
</defs>
</svg>
