<svg xmlns="http://www.w3.org/2000/svg" width="16.928" height="20.313" viewBox="0 0 16.928 20.313">
  <g id="lock" transform="translate(-42.667)">
    <path id="Path_9572" data-name="Path 9572" d="M57.055,7.13V5.925a5.925,5.925,0,0,0-11.849,0V7.13A4.232,4.232,0,0,0,42.667,11v5.078A4.237,4.237,0,0,0,46.9,20.313h8.464a4.237,4.237,0,0,0,4.232-4.232V11A4.232,4.232,0,0,0,57.055,7.13Zm-5.078,7.259a.846.846,0,0,1-1.693,0V12.7a.846.846,0,0,1,1.693,0Zm3.386-7.617H46.9V5.925a4.232,4.232,0,0,1,8.464,0Z" fill="#0a233c"/>
  </g>
</svg>
